<?xml version="1.0" encoding="UTF-8" standalone="no"?>
<!-- Created with Inkscape (http://www.inkscape.org/) -->

<svg
   width="65.325691mm"
   height="32.460854mm"
   viewBox="0 0 65.325693 32.460855"
   version="1.1"
   id="svg1"
   xml:space="preserve"
   inkscape:version="1.4.3 (0d15f75, 2025-12-25)"
   sodipodi:docname="distrito cosmetico.svg"
   xmlns:inkscape="http://www.inkscape.org/namespaces/inkscape"
   xmlns:sodipodi="http://sodipodi.sourceforge.net/DTD/sodipodi-0.dtd"
   xmlns="http://www.w3.org/2000/svg"
   xmlns:svg="http://www.w3.org/2000/svg"><sodipodi:namedview
     id="namedview1"
     pagecolor="#ffffff"
     bordercolor="#000000"
     borderopacity="0.25"
     inkscape:showpageshadow="2"
     inkscape:pageopacity="0.0"
     inkscape:pagecheckerboard="0"
     inkscape:deskcolor="#d1d1d1"
     inkscape:document-units="mm"
     inkscape:zoom="1.0806046"
     inkscape:cx="383.58154"
     inkscape:cy="254.94986"
     inkscape:window-width="2560"
     inkscape:window-height="1494"
     inkscape:window-x="-11"
     inkscape:window-y="-11"
     inkscape:window-maximized="1"
     inkscape:current-layer="layer1"><inkscape:page
       x="0"
       y="-1.9398333e-22"
       width="65.325691"
       height="32.460854"
       id="page2"
       margin="0"
       bleed="0" /></sodipodi:namedview><defs
     id="defs1" /><g
     inkscape:label="Layer 1"
     inkscape:groupmode="layer"
     id="layer1"
     transform="translate(-152.17415,-186.29961)"><g
       id="g131"
       inkscape:label="WomanlyFIgure"
       transform="translate(90.669445,55.31496)"
       style="display:inline"><path
         id="path125"
         style="display:inline;fill:#000000;fill-opacity:1;stroke:none;stroke-width:0.3;stroke-dasharray:none;stroke-opacity:1"
         inkscape:label="Hair"
         d="m 83.647083,163.44498 h 11.246342 c 0.266052,-0.71393 0.279005,-1.61604 -0.933276,-2.24327 -0.814766,-0.3657 -3.307392,-0.54385 -1.518254,-3.18327 0.994096,-1.50555 -0.307995,-3.05559 -3.807002,-4.12791 -1.434628,-0.34856 -3.59925,-0.70383 -2.736784,-4.23333 l 2.308386,-4.86069 -18.59318,0.9033 c 0.263562,2.79375 0.21015,4.45144 1.204577,5.3449 3.423063,5.52897 -2.141612,3.90241 -1.158585,9.23871 z" /><path
         id="path126"
         style="display:inline;fill:#ffffff;fill-opacity:1;stroke:none;stroke-width:0.07;stroke-dasharray:none;stroke-opacity:1"
         inkscape:label="Filling"
         d="m 61.504766,147.03668 v 13.79503 c 0.988187,0.51684 2.065282,1.03726 3.253548,1.56063 0.375139,0.34846 1.000704,0.70265 1.820561,1.05264 h 27.703218 c -0.27666,-0.30267 -0.625801,-0.62671 -1.052649,-0.97306 -1.17776,-0.33724 -3.356541,-2.00048 -3.223059,-2.0991 -1.13975,-1.93772 0.646693,-4.45774 -2.204,-5.78311 -0.657296,-0.0337 -1.837863,-0.31491 -2.997233,-0.18552 -0.538141,0.35336 -1.057777,0.2628 -1.253153,-1.03818 0.823113,-1.64885 1.333982,-2.77117 1.559594,-3.52226 l 0.489376,-0.0305 c 10.765757,-1.82589 12.584926,-7.44583 7.637777,-11.59051 -1.521627,-1.2748 -3.995256,-2.7074 -7.913212,-4.11034 -2.084222,-2.42866 -4.459047,-3.12591 -6.468339,-3.03393 -2.009293,0.092 -3.652866,0.97337 -4.274158,1.70274 -13.300999,1.0605 -13.865378,7.22156 -12.017871,9.70794 0.860693,1.15832 2.301159,2.24261 3.356384,3.37602 -0.879431,0.49106 -2.490392,0.79251 -4.416784,1.1715 z m 7.813993,0.75655 5.968111,1.7141 c 0.273594,3.53172 1.202356,2.31528 1.622123,4.42247 -0.230253,2.55755 -1.235418,2.07142 -1.989542,2.57091 -2.00449,-0.35158 -1.248689,-1.75096 -4.912362,-1.3162 -0.575882,-0.24679 -0.782472,-1.01152 -1.866553,-0.55087 -1.974239,-1.34205 -2.225584,0.16106 -3.33623,0.24494 -1.033003,-0.005 -2.222832,-1.33138 -3.29799,-1.94355 l 7.720459,-3.35121 z" /><path
         id="path127"
         style="display:inline;fill:#7061ee;fill-opacity:1;stroke:none;stroke-width:0.07;stroke-dasharray:none;stroke-opacity:1"
         inkscape:label="PurpleFill"
         d="m 61.504766,147.11937 v 5.91643 l 0.09715,-0.0367 8.301819,-3.64215 c 0,0 -0.132556,-1.34738 0.04444,-1.27486 6.528773,2.67507 11.705405,2.07487 15.791801,1.73012 10.880842,-0.91797 12.541517,-7.38071 7.594368,-11.52539 -1.521627,-1.2748 -3.995256,-2.7074 -7.913212,-4.11034 -2.084222,-2.42866 -4.459047,-3.12591 -6.468339,-3.03393 -2.009293,0.092 -3.652865,0.97337 -4.274157,1.70274 -13.300999,1.0605 -13.865379,7.22156 -12.017872,9.70794 0.860693,1.15832 2.30116,2.24261 3.356385,3.37602 -0.893924,0.49915 -2.543792,0.8022 -4.512386,1.19011 z" /><path
         id="path128"
         style="fill:#7061ee;fill-rule:nonzero;stroke:none;stroke-width:0.3;stroke-dasharray:none;stroke-opacity:1"
         d="m 61.504766,160.67616 v 0.33952 c 0.998181,0.52286 2.086773,1.04904 3.288171,1.57819 0.899813,0.42167 1.625614,0.65434 2.251542,0.85111 h 0.970484 c -0.83561,-0.30779 -1.781306,-0.50754 -3.096969,-1.12447 h -0.0021 l -0.0021,-0.002 c -1.25163,-0.55128 -2.379215,-1.09865 -3.409094,-1.64228 z" /><path
         id="path129"
         style="fill:#7061ee;fill-rule:nonzero;stroke:none;stroke-width:0.3;stroke-dasharray:none;stroke-opacity:1"
         d="m 61.504766,152.87767 v 0.23823 l 0.02274,0.0129 c 0.517774,0.29481 1.082271,0.77798 1.650029,1.19166 0.567759,0.41368 1.140405,0.76872 1.720825,0.77153 h 0.0062 0.0078 c 0.01319,-0.001 0.02579,-0.003 0.03876,-0.004 0.211497,-0.0268 0.368219,0.0323 0.545186,0.19327 0.176966,0.161 0.357995,0.43157 0.554488,0.79479 0.392986,0.72645 0.850668,1.81875 1.576132,3.15846 0.663012,1.22438 1.552605,2.65522 2.830835,4.21059 h 0.387573 c -1.34884,-1.61159 -2.271932,-3.09206 -2.954859,-4.35322 -0.717965,-1.32587 -1.167613,-2.4066 -1.574064,-3.15794 -0.203225,-0.37566 -0.394452,-0.67086 -0.617016,-0.87334 -0.06068,-0.0552 -0.125014,-0.10288 -0.192237,-0.14262 0.300693,-0.1539 0.543121,-0.37126 0.803569,-0.49816 0.205525,-0.10014 0.417151,-0.15518 0.704866,-0.11318 0.273118,0.0399 0.618309,0.17366 1.064535,0.46716 -0.0065,0.13357 -7.3e-5,0.3184 0.05374,0.55139 0.03064,0.13264 0.07245,0.26248 0.120407,0.3886 0.03192,0.084 0.06851,0.17082 0.11007,0.26149 0.19754,0.43091 0.478363,0.87979 0.788583,1.3565 0.322261,0.49521 0.611007,0.9586 0.905371,1.46968 0.05532,0.0961 0.107138,0.18728 0.158646,0.27854 0.256358,0.45423 0.550613,1.06466 0.627352,1.29552 -0.04497,-0.33126 -0.128724,-0.83413 -0.384472,-1.41645 -0.04314,-0.0982 -0.0911,-0.19794 -0.142627,-0.29869 -0.267962,-0.5239 -0.604796,-1.01155 -0.912089,-1.49138 -0.308766,-0.48214 -0.579019,-0.90929 -0.767912,-1.31878 -0.0392,-0.085 -0.07301,-0.16582 -0.102319,-0.24288 -0.04409,-0.11597 -0.08152,-0.23296 -0.108521,-0.34985 -0.04486,-0.1942 -0.05183,-0.34604 -0.04754,-0.45527 0.454795,-0.1751 0.684415,-0.10518 0.90072,0.032 0.229239,0.14548 0.429729,0.40949 0.763261,0.55242 l 0.02119,0.009 c 1.29687,2.91693 2.269058,5.12613 5.165576,8.04963 h 0.42013 c -2.999643,-2.96204 -3.96421,-5.13808 -5.27048,-8.07702 1.621588,-0.16392 2.251179,0.062 2.720248,0.36845 0.175739,0.11482 0.334504,0.24838 0.51263,0.38137 l -0.0057,0.0119 c 0.01802,0.008 0.03722,0.0169 0.05684,0.0258 0.20959,0.1526 0.449792,0.30148 0.777213,0.41651 0.02735,0.0182 0.05281,0.0357 0.07648,0.0527 0.04604,0.033 0.08793,0.0655 0.126091,0.0977 0.08908,0.075 0.152679,0.14382 0.203088,0.21084 0.0494,0.0657 0.08575,0.12901 0.124024,0.19637 0.03695,0.065 0.07604,0.14622 0.130741,0.22789 0.05766,0.0861 0.131265,0.17106 0.234094,0.25063 0.04379,0.0339 0.09134,0.0658 0.143144,0.0951 0.07764,0.0439 0.173921,0.0859 0.285254,0.12712 0.241921,0.0896 0.513788,0.16127 0.681612,0.21239 -0.157922,-0.0893 -0.382312,-0.23828 -0.577226,-0.39687 -0.09072,-0.0738 -0.155324,-0.13284 -0.216524,-0.18759 -0.03937,-0.0352 -0.07434,-0.0668 -0.108004,-0.0982 -0.07689,-0.0715 -0.135321,-0.13138 -0.185001,-0.19171 -0.04903,-0.0596 -0.08863,-0.11843 -0.127641,-0.18707 -0.03824,-0.0673 -0.0825,-0.14572 -0.144694,-0.22841 -0.02445,-0.0325 -0.05141,-0.0647 -0.08061,-0.0972 0.32811,-0.16124 0.76082,-0.2076 1.166853,-0.47025 0.459803,-0.29744 0.840115,-0.88087 0.957048,-2.17971 0.02998,-0.29118 -0.08249,-0.5553 -0.246497,-0.81804 -0.164005,-0.26274 -0.383302,-0.53229 -0.597379,-0.84956 -0.428153,-0.63454 -0.843115,-1.45124 -0.777214,-2.76004 l -0.125573,-0.007 0.04134,-0.14366 -5.532996,-1.59008 -0.05684,0.10387 c -0.114811,0.20331 -0.189197,0.3959 -0.195337,0.62683 -0.0052,0.19383 0.05763,0.43789 0.14056,0.71469 z m 8.554,-4.68033 5.193998,1.49189 c -0.03653,1.29746 0.396349,2.15381 0.825272,2.7895 0.22126,0.32791 0.440216,0.59913 0.591696,0.84181 0.15148,0.24268 0.233215,0.44761 0.211356,0.65991 v 0.002 c -0.11332,1.25871 -0.453619,1.73968 -0.843876,1.99213 -0.325702,0.21069 -0.718552,0.25581 -1.081588,0.4253 -0.14232,-0.0282 -0.268809,-0.0619 -0.382922,-0.0997 -0.04897,-0.0318 -0.102298,-0.0648 -0.161231,-0.0992 -0.205631,-0.12002 -0.426219,-0.22713 -0.595829,-0.30541 -0.179132,-0.133 -0.345617,-0.2745 -0.551904,-0.40927 -0.538268,-0.35167 -1.325452,-0.59045 -3.11919,-0.38706 -0.234325,-0.10767 -0.42262,-0.34024 -0.704866,-0.51935 -0.263543,-0.16724 -0.655852,-0.19086 -1.150834,-0.0196 -0.488273,-0.32681 -0.887607,-0.50115 -1.228349,-0.55088 -0.349375,-0.051 -0.639712,0.0228 -0.882634,0.14108 -0.48378,0.23573 -0.797591,0.60069 -1.283125,0.64027 -0.451569,-0.004 -0.987243,-0.31027 -1.539441,-0.71262 -0.479289,-0.34922 -0.969134,-0.73467 -1.453142,-1.04489 l 8.232573,-3.57808 -0.04289,-0.12919 c -0.114084,-0.34673 -0.159147,-0.57552 -0.154512,-0.74983 0.0036,-0.13525 0.05983,-0.25119 0.12144,-0.37878 z m 10.231933,9.64902 c -0.510254,-0.004 -1.077285,0.038 -1.575098,0.0853 -0.107374,0.0102 -0.212626,0.021 -0.311608,0.0315 -0.4555,0.0485 -1.004464,0.12153 -1.19631,0.12919 0.254557,0.0577 0.659825,0.14772 1.205611,0.17053 0.101714,0.004 0.20719,0.007 0.316777,0.008 0.501258,0.005 1.06931,-0.0196 1.557011,-0.016 0.244127,0.002 0.482309,0.01 0.710551,0.0295 0.233717,0.0202 0.441088,0.051 0.630452,0.0935 0.08089,0.0182 0.156621,0.0381 0.227893,0.0594 0.107812,0.0322 0.214146,0.0677 0.320911,0.1142 0.234577,0.10203 0.391468,0.22531 0.483691,0.3204 -0.05621,-0.11206 -0.158188,-0.30557 -0.371036,-0.49351 -0.09748,-0.0861 -0.205925,-0.15974 -0.319361,-0.21859 -0.0754,-0.0391 -0.157016,-0.0748 -0.244946,-0.10697 -0.205195,-0.075 -0.434715,-0.12682 -0.684713,-0.15968 -0.244018,-0.0321 -0.497729,-0.0446 -0.749825,-0.0465 z" /><path
         id="path130"
         style="fill:#7061ee;fill-rule:nonzero;stroke:none;stroke-width:0.3;stroke-dasharray:none;stroke-opacity:1"
         d="m 61.504766,146.96692 v 0.30489 c 1.979395,-0.38934 3.640208,-0.68388 4.584733,-1.21129 l 0.167948,-0.0941 -0.130741,-0.14056 c -1.069104,-1.14832 -2.505897,-2.23312 -3.345532,-3.3631 -0.884017,-1.18971 -1.20757,-3.27058 0.326078,-5.20485 1.533648,-1.93427 4.956063,-3.73539 11.583789,-4.26382 l 0.06098,-0.004 0.04082,-0.047 c 0.575293,-0.67537 2.196855,-1.55986 4.166154,-1.65003 1.969306,-0.0901 4.290627,0.58348 6.347417,2.98018 l 0.02739,0.0315 0.03721,0.0134 c 3.906309,1.39877 6.364531,2.82506 7.86722,4.08399 1.220527,1.02255 2.015177,2.12922 2.361096,3.23236 0.34592,1.10313 0.248793,2.20181 -0.324011,3.24425 -1.145133,2.08399 -4.242732,3.93842 -9.597864,4.84776 h -5.16e-4 c -10e-4,3.2e-4 -0.0027,0.001 -0.0036,0.002 -2.44e-4,8e-5 -7.71e-4,4.7e-4 -0.001,5.2e-4 h -5.17e-4 l -0.359668,0.0217 c 0.0097,-0.0393 0.0178,-0.0756 0.02429,-0.10852 0.01162,-0.0589 0.01848,-0.10753 0.02119,-0.14779 0.0016,-0.0243 0.0015,-0.0461 5.17e-4,-0.0656 -0.0012,-0.0252 -0.0042,-0.0466 -0.0093,-0.0661 l -0.290421,0.0754 c -1.21e-4,-5.2e-4 -4.71e-4,-7.7e-4 -5.17e-4,-0.001 1.3e-4,8.7e-4 8.42e-4,0.003 10e-4,0.007 3.03e-4,0.006 -5.3e-5,0.0159 -10e-4,0.0305 -0.0016,0.0244 -0.0057,0.0601 -0.0155,0.11008 -0.01684,0.0854 -0.0479,0.20325 -0.09767,0.3576 -0.05776,0.17911 -0.134303,0.38617 -0.22531,0.60823 -0.06019,0.14684 -0.130106,0.30889 -0.210323,0.48369 -0.186474,0.40634 -0.425712,0.87654 -0.712618,1.36116 -0.283058,0.47812 -0.598601,0.94634 -0.937927,1.37046 -0.338587,0.42319 -0.714714,0.81034 -1.112594,1.11621 -0.407365,0.31315 -0.810324,0.52063 -1.204577,0.62321 -0.168652,0.0439 -0.333093,0.0678 -0.494027,0.0744 -0.04111,0.002 -0.08297,0.002 -0.125574,0.002 -0.206463,-0.003 -0.423444,-0.0348 -0.651639,-0.10904 -0.240402,-0.0782 -0.47296,-0.197 -0.697115,-0.34985 -0.31482,-0.21467 -0.568616,-0.46732 -0.728121,-0.64389 0.142486,0.18799 0.368279,0.47174 0.660941,0.73019 0.208759,0.18435 0.436895,0.34321 0.685746,0.46043 0.237433,0.11183 0.476653,0.17728 0.713135,0.20103 0.04865,0.005 0.09631,0.008 0.143661,0.009 0.185822,0.005 0.376481,-0.0146 0.570507,-0.06 0.453539,-0.10613 0.897297,-0.34624 1.324467,-0.68626 0.41741,-0.33225 0.801173,-0.74519 1.149284,-1.18029 0.127904,-0.15987 0.252678,-0.32583 0.373104,-0.49558 0.03135,0.22607 0.0787,0.48056 0.151929,0.74724 0.02323,0.0846 0.04883,0.16939 0.077,0.25477 0.134023,0.40621 0.306332,0.75865 0.502811,1.07074 0.194064,0.30826 0.390446,0.58446 0.599447,0.79788 0.04432,0.0453 0.08817,0.0864 0.131775,0.12351 0.203631,0.17321 0.48125,0.30625 0.568957,0.35863 -0.06048,-0.0994 -0.187183,-0.35006 -0.351916,-0.56534 -0.03367,-0.044 -0.07042,-0.0891 -0.109554,-0.13539 -0.185364,-0.21934 -0.400458,-0.4464 -0.584977,-0.73949 -0.123809,-0.19666 -0.237419,-0.40994 -0.336931,-0.64492 2.012188,-0.25209 3.258973,-0.099 4.022494,0.27543 0.780807,0.38289 1.08453,0.98691 1.2361,1.71463 0.15157,0.72773 0.129269,1.56817 0.236678,2.35179 0.03941,0.28749 0.09755,0.56994 0.191203,0.83561 -0.290331,-0.29267 -0.532066,-0.56943 -0.744657,-0.82682 -0.01576,-0.0191 -0.03177,-0.0376 -0.04703,-0.0563 -0.145675,-0.17786 -0.275811,-0.34084 -0.399459,-0.51625 -0.176547,-0.25046 -0.277455,-0.44254 -0.326595,-0.56069 0.01732,0.12479 0.04888,0.34663 0.166398,0.64596 0.07993,0.20359 0.187939,0.41224 0.318327,0.60874 0.01402,0.0211 0.02856,0.0427 0.04341,0.0641 0.288146,0.41516 0.706222,0.84426 1.214913,1.2852 0.185988,0.16122 0.37778,0.31873 0.572058,0.47335 0.642115,0.51102 1.469642,1.08404 2.455664,1.64176 0.108241,0.0612 0.225219,0.12615 0.350367,0.19379 0.04395,0.0238 0.08508,0.0512 0.122989,0.0837 0.03278,0.0281 0.06206,0.0592 0.08992,0.0941 0.05419,0.0679 0.09292,0.13779 0.144694,0.22686 0.02488,0.0428 0.05133,0.0868 0.08113,0.13022 0.01295,0.0188 0.0263,0.0373 0.04031,0.0553 h 0.485242 c -0.03423,-0.0135 -0.072,-0.0316 -0.109554,-0.0558 -0.03323,-0.0214 -0.06438,-0.0465 -0.09405,-0.077 -0.02603,-0.0268 -0.05052,-0.057 -0.07493,-0.0925 -0.02319,-0.0338 -0.04473,-0.0698 -0.06873,-0.11111 -0.04697,-0.0808 -0.09821,-0.17422 -0.169499,-0.26355 -0.03869,-0.0485 -0.0814,-0.093 -0.129707,-0.13436 -0.05574,-0.0477 -0.11455,-0.0871 -0.175183,-0.11989 -0.123335,-0.0667 -0.238514,-0.13085 -0.345199,-0.1912 -0.943335,-0.53359 -1.738424,-1.08062 -2.360063,-1.57045 l 0.0062,-0.009 c -0.623136,-0.41417 -0.838961,-1.04632 -0.941544,-1.79472 -0.102583,-0.7484 -0.0784,-1.59417 -0.240296,-2.37144 -0.16189,-0.77728 -0.530289,-1.49822 -1.398364,-1.92391 -0.434037,-0.21285 -0.986222,-0.35483 -1.694987,-0.40824 -0.693975,-0.0523 -1.537557,-0.0183 -2.568835,0.11472 -0.0082,-0.0236 -0.01635,-0.0478 -0.02429,-0.0718 -0.02652,-0.0804 -0.05041,-0.1604 -0.07235,-0.2403 -0.108592,-0.39551 -0.157783,-0.76334 -0.181901,-1.04799 0.114174,-0.17436 0.223786,-0.35167 0.329179,-0.52969 0.292786,-0.49455 0.537267,-0.97379 0.727604,-1.38854 0.08193,-0.17852 0.153217,-0.34438 0.214974,-0.49506 0.08954,-0.21848 0.166704,-0.42468 0.226343,-0.6072 l 0.489375,-0.031 h 0.0078 c 5.406519,-0.91695 8.599895,-2.78401 9.818522,-5.00176 0.609314,-1.10888 0.713656,-2.30498 0.345715,-3.47834 -0.367942,-1.17336 -1.200033,-2.32364 -2.45308,-3.37344 -1.535619,-1.28652 -4.019909,-2.71995 -7.927681,-4.12274 -2.10438,-2.43211 -4.518882,-3.14988 -6.558256,-3.05666 h -5.17e-4 l -0.14211,0.008 v 0.0253 c -1.93142,0.12809 -3.49013,0.92446 -4.166154,1.6738 -6.651831,0.5354 -10.156437,2.34169 -11.76569,4.37131 -1.611914,2.03298 -1.293704,4.2756 -0.330213,5.57227 0.835611,1.12456 2.167261,2.15378 3.191537,3.21065 -0.873889,0.43533 -2.37108,0.74411 -4.227649,1.11363 z" /><path
         style="fill:#000000;fill-opacity:1;stroke:none;stroke-width:0.3;stroke-dasharray:none;stroke-opacity:1"
         d="m 78.182863,152.40225 c 1.641481,0.0422 1.309963,-0.74286 2.165369,0.0536 0.80872,-0.89595 0.679757,0.13056 1.920523,0.1912 -0.66815,0.14249 -0.91029,1.03213 -1.928181,1.00362 -1.211699,-0.034 -1.071759,-0.9145 -2.157711,-1.24846 z"
         id="path131"
         sodipodi:nodetypes="cccscc" /></g><g
       id="g132"
       transform="translate(141.83841,0.76898155)"><text
         xml:space="preserve"
         style="font-style:normal;font-variant:normal;font-weight:normal;font-stretch:normal;font-size:22.5778px;font-family:Castellar;-inkscape-font-specification:'Castellar, Normal';font-variant-ligatures:normal;font-variant-caps:normal;font-variant-numeric:normal;font-variant-east-asian:normal;letter-spacing:0.267229px;word-spacing:-0.00264583px;writing-mode:lr-tb;direction:ltr;fill:#000000;fill-opacity:1;stroke:none;stroke-width:0.3;stroke-dasharray:none;stroke-opacity:1"
         x="49.091244"
         y="207.97841"
         id="text131"><tspan
           sodipodi:role="line"
           id="tspan131"
           style="font-style:normal;font-variant:normal;font-weight:normal;font-stretch:normal;font-size:22.5778px;font-family:Castellar;-inkscape-font-specification:'Castellar, Normal';font-variant-ligatures:normal;font-variant-caps:normal;font-variant-numeric:normal;font-variant-east-asian:normal;stroke-width:0.3"
           x="49.091244"
           y="207.97841">D</tspan></text><text
         xml:space="preserve"
         style="font-style:normal;font-variant:normal;font-weight:normal;font-stretch:normal;font-size:22.5778px;font-family:Bigtimes;-inkscape-font-specification:'Bigtimes, Normal';font-variant-ligatures:normal;font-variant-caps:normal;font-variant-numeric:normal;font-variant-east-asian:normal;letter-spacing:0.267229px;word-spacing:-0.00264583px;writing-mode:lr-tb;direction:ltr;fill:#000000;fill-opacity:1;stroke:none;stroke-width:0.3;stroke-dasharray:none;stroke-opacity:1"
         x="56.718628"
         y="212.47693"
         id="text132"><tspan
           sodipodi:role="line"
           id="tspan132"
           style="font-style:normal;font-variant:normal;font-weight:normal;font-stretch:normal;font-size:22.5778px;font-family:Bigtimes;-inkscape-font-specification:'Bigtimes, Normal';font-variant-ligatures:normal;font-variant-caps:normal;font-variant-numeric:normal;font-variant-east-asian:normal;stroke-width:0.3"
           x="56.718628"
           y="212.47693">C</tspan></text></g></g></svg>
